<?xml version="1.0" encoding="UTF-8" standalone="no"?>
<!-- Created with Inkscape (http://www.inkscape.org/) -->

<svg
   xmlns:dc="http://purl.org/dc/elements/1.1/"
   xmlns:cc="http://creativecommons.org/ns#"
   xmlns:rdf="http://www.w3.org/1999/02/22-rdf-syntax-ns#"
   xmlns:svg="http://www.w3.org/2000/svg"
   xmlns="http://www.w3.org/2000/svg"
   xmlns:sodipodi="http://sodipodi.sourceforge.net/DTD/sodipodi-0.dtd"
   xmlns:inkscape="http://www.inkscape.org/namespaces/inkscape"
   id="svg8"
   version="1.1"
   viewBox="0 0 162.90259 70.740112"
   height="70.740112mm"
   width="162.90259mm"
   inkscape:version="0.92.5 (2060ec1f9f, 2020-04-08)"
   sodipodi:docname="SineWaves.svg">
  <defs
     id="defs2" />
  <sodipodi:namedview
     id="base"
     pagecolor="#ffffff"
     bordercolor="#666666"
     borderopacity="1.0"
     inkscape:pageopacity="0.0"
     inkscape:pageshadow="2"
     inkscape:zoom="2.9064481"
     inkscape:cx="349.29978"
     inkscape:cy="112.04758"
     inkscape:document-units="mm"
     inkscape:current-layer="layer1"
     showgrid="false"
     inkscape:window-width="3840"
     inkscape:window-height="2126"
     inkscape:window-x="-11"
     inkscape:window-y="-11"
     inkscape:window-maximized="1"
     inkscape:pagecheckerboard="true"
     fit-margin-top="0"
     fit-margin-left="0"
     fit-margin-right="0"
     fit-margin-bottom="0" />
  <metadata
     id="metadata5">
    <rdf:RDF>
      <cc:Work
         rdf:about="">
        <dc:format>image/svg+xml</dc:format>
        <dc:type
           rdf:resource="http://purl.org/dc/dcmitype/StillImage" />
        <dc:title></dc:title>
      </cc:Work>
    </rdf:RDF>
  </metadata>
  <g
     inkscape:label="Layer 1"
     inkscape:groupmode="layer"
     id="layer1"
     transform="translate(0.3807066,-226.6247)">
    <path
       id="path963"
       title="t/16 cos(t)"
       d="m 0.12641462,227.12477 c 1.86078518,0.005 3.72157048,4.62245 5.58235518,12.29959 1.8607854,7.67713 3.7215715,18.28021 5.5823582,28.22474 1.860785,9.94453 3.721568,19.04634 5.582351,24.2451 1.860785,5.19868 3.721568,6.38036 5.582356,3.16704 1.860785,-3.21332 3.72157,-10.78517 5.582354,-20.14445 1.860787,-9.3592 3.721576,-20.34467 5.58236,-29.24949 1.860785,-8.90477 3.721569,-15.5566 5.582356,-17.72705 1.860786,-2.1704 3.72157,0.20243 5.582357,6.29705 1.860785,6.09459 3.72157,15.81872 5.582353,25.88028 1.860786,10.0615 3.72157,20.27915 5.582362,27.21198 1.860783,6.93284 3.721566,10.43827 5.582348,9.35311 1.860782,-1.08512 3.721575,-6.76406 5.582359,-15.1018 1.860784,-8.33783 3.721567,-19.19617 5.582351,-28.90664 1.860793,-9.71044 3.721577,-18.09062 5.582361,-22.32562 1.860785,-4.235 3.721568,-4.22705 5.582362,0 1.86078,4.22711 3.721563,12.61754 5.582345,22.32562 1.860792,9.70812 3.721575,20.56389 5.582362,28.90664 1.860784,8.34267 3.721567,14.00803 5.582345,15.1018 1.8608,1.09387 3.72155,-2.42663 5.58238,-9.35311 1.86084,-6.92645 3.72156,-17.15002 5.58234,-27.21198 1.86076,-10.06202 3.72157,-19.77874 5.58241,-25.88028 1.86073,-6.10158 3.72151,-8.45895 5.58225,-6.29705 1.86084,2.16193 3.72167,8.82635 5.58241,17.72705 1.86078,8.90072 3.72151,19.88702 5.58235,29.24949 1.86082,9.36256 3.72159,16.92282 5.58237,20.14445 1.86072,3.22161 3.72156,2.0242 5.58238,-3.16704 1.86077,-5.19129 3.72154,-14.302 5.58227,-24.2451 1.86086,-9.94311 3.72165,-20.54194 5.58241,-28.22474 1.86077,-7.68282 3.72152,-12.29524 5.58238,-12.29959"
       style="fill:none;fill-opacity:1;stroke:#ffffff;stroke-width:1;stroke-linecap:round;stroke-linejoin:round;stroke-miterlimit:4;stroke-dasharray:none;stroke-dashoffset:0;stroke-opacity:1;paint-order:normal"
       inkscape:connector-curvature="0" />
    <path
       id="path1054"
       title="t/8 cos(t)"
       d="m 0.16635874,232.16353 c 1.85986546,8.6e-4 3.71973106,0.94894 5.57959536,2.7577 1.8598654,1.80876 3.7197309,4.47924 5.5795969,7.76336 1.859864,3.28412 3.719729,7.18157 5.579595,11.33397 1.859865,4.1524 3.71973,8.55637 5.579595,12.80949 1.859866,4.25312 3.719731,8.34955 5.579596,11.9172 1.859865,3.56763 3.719731,6.59931 5.579595,8.82201 1.859865,2.22271 3.71973,3.6292 5.579597,4.0961 1.859865,0.46689 3.71973,-0.0123 5.579595,-1.38698 1.859865,-1.37523 3.719731,-3.65055 5.579594,-6.6137 1.859866,-2.96312 3.719731,-6.61453 5.579597,-10.61783 1.859866,-4.00331 3.71973,-8.35584 5.579596,-12.65933 1.859866,-4.30346 3.71973,-8.55254 5.579595,-12.3607 1.859865,-3.80814 3.719731,-7.16835 5.579596,-9.77725 1.859864,-2.60889 3.719728,-4.45908 5.579593,-5.38646 1.859864,-0.92738 3.719728,-0.92554 5.579604,0 1.859865,0.92556 3.719729,2.77906 5.579594,5.38646 1.859863,2.6074 3.719728,5.96998 5.579592,9.77725 1.859865,3.80728 3.719741,8.05735 5.579605,12.3607 1.85987,4.30339 3.71973,8.65534 5.57959,12.65933 1.85986,4.00398 3.71973,7.65335 5.5796,10.61783 1.85986,2.9645 3.71973,5.23671 5.57958,6.6137 1.85987,1.37698 3.71974,1.85202 5.57961,1.38698 1.85987,-0.46504 3.71974,-1.87499 5.5796,-4.0961 1.85986,-2.22109 3.71974,-5.2554 5.5796,-8.82201 1.85986,-3.56661 3.71972,-7.66438 5.57959,-11.9172 1.85985,-4.25282 3.71973,-8.65659 5.57959,-12.80949 1.85986,-4.15291 3.71974,-8.04865 5.57961,-11.33397 1.85987,-3.28532 3.71972,-5.95289 5.57959,-7.76336 1.85986,-1.81047 3.71973,-2.75677 5.57959,-2.7577"
       style="fill:none;fill-opacity:1;stroke:#00fcc2;stroke-width:1;stroke-linecap:round;stroke-linejoin:round;stroke-miterlimit:4;stroke-dasharray:none;stroke-dashoffset:0;stroke-opacity:1;paint-order:normal"
       inkscape:connector-curvature="0" />
  </g>
</svg>
